<svg id="svg" xmlns="http://www.w3.org/2000/svg" xmlns:xlink="http://www.w3.org/1999/xlink" width="400" height="400" viewBox="0, 0, 400,400" version="1.1"><g id="svgg"><path id="path0" d="M224.745 74.265 C 222.603 75.728,218.208 79.007,217.343 79.788 C 217.092 80.014,215.494 81.280,213.793 82.600 C 212.091 83.920,209.507 85.998,208.050 87.217 C 206.592 88.437,204.680 89.967,203.800 90.617 C 202.920 91.268,201.765 92.193,201.233 92.673 C 198.980 94.707,197.830 95.038,195.509 94.317 C 189.735 92.522,184.220 92.886,182.000 95.209 C 181.890 95.324,181.260 95.759,180.600 96.175 C 179.940 96.591,178.314 97.879,176.987 99.038 C 172.455 102.996,167.279 105.200,162.520 105.200 C 156.446 105.200,151.898 108.044,143.568 117.051 C 131.760 129.819,130.955 130.768,129.662 133.438 C 128.926 134.957,128.160 136.515,127.959 136.900 C 127.243 138.270,128.665 137.607,133.643 134.251 C 137.856 131.411,139.117 130.771,141.948 130.037 C 143.784 129.561,145.942 128.841,146.743 128.437 C 147.545 128.033,148.636 127.568,149.169 127.402 C 150.295 127.054,150.127 127.176,153.945 123.915 C 157.892 120.544,160.728 119.057,164.400 118.434 C 167.235 117.953,169.035 117.398,171.800 116.154 C 175.872 114.322,175.189 123.047,170.998 126.400 C 169.093 127.924,168.740 129.000,170.012 129.404 C 170.942 129.699,176.777 128.587,178.660 127.756 C 179.354 127.450,180.091 127.200,180.299 127.200 C 180.507 127.200,181.267 126.906,181.988 126.546 C 183.216 125.934,184.268 124.970,188.189 120.864 C 189.063 119.949,189.934 119.200,190.124 119.200 C 190.314 119.200,191.579 118.137,192.935 116.837 C 194.452 115.383,196.323 114.070,197.800 113.422 C 199.120 112.844,200.470 112.224,200.800 112.045 C 201.130 111.866,202.570 111.120,204.000 110.386 C 214.161 105.175,222.426 96.877,227.193 87.100 C 228.678 84.055,228.833 83.995,231.486 85.450 C 236.040 87.947,241.806 92.900,245.800 97.747 C 251.563 104.740,254.254 107.538,259.797 112.295 C 269.472 120.599,272.800 122.404,272.800 119.348 C 272.800 119.245,270.081 116.339,266.757 112.890 C 261.127 107.047,255.914 100.410,250.193 91.803 C 247.501 87.753,243.626 84.315,239.300 82.139 C 235.901 80.430,235.187 79.871,232.882 77.117 C 228.787 72.226,228.089 71.981,224.745 74.265 M231.400 101.652 C 224.705 106.256,219.234 111.662,215.305 117.557 C 212.963 121.070,211.049 123.319,207.440 126.800 C 195.015 138.782,193.725 140.302,195.433 140.957 C 196.626 141.415,197.221 141.197,198.909 139.683 C 199.839 138.848,200.978 137.903,201.441 137.583 C 216.867 126.889,219.927 125.998,214.623 133.745 C 212.855 136.327,212.663 136.775,212.753 138.100 C 212.815 139.027,214.245 138.968,215.800 137.975 C 216.460 137.554,217.270 137.084,217.600 136.930 C 217.930 136.777,219.328 135.965,220.707 135.126 C 222.086 134.287,223.329 133.600,223.469 133.600 C 223.610 133.600,224.281 133.178,224.962 132.662 C 225.643 132.146,226.384 131.651,226.610 131.562 C 230.666 129.957,232.567 127.183,233.163 122.000 C 233.978 114.901,234.841 110.350,236.046 106.781 C 238.348 99.962,236.624 98.059,231.400 101.652 M119.867 174.667 C 119.208 175.325,119.572 329.104,120.233 329.357 C 122.498 330.227,160.862 329.427,166.000 328.403 C 171.353 327.337,174.101 326.505,177.200 325.012 C 178.410 324.429,179.903 323.720,180.518 323.436 C 181.673 322.903,185.516 319.906,187.744 317.800 C 193.450 312.407,198.909 302.085,200.013 294.600 C 202.192 279.841,200.684 269.645,194.926 260.200 C 192.475 256.180,184.944 248.140,181.701 246.079 C 179.468 244.661,179.538 244.057,182.300 240.836 C 183.565 239.361,184.914 237.715,185.297 237.177 C 190.583 229.767,191.242 228.386,192.641 221.800 C 193.353 218.449,193.082 208.785,192.171 205.068 C 191.857 203.785,191.600 202.289,191.600 201.743 C 191.600 201.197,191.178 199.817,190.662 198.675 C 190.147 197.534,189.388 195.790,188.976 194.800 C 188.564 193.810,187.586 192.100,186.801 191.000 C 186.017 189.900,185.055 188.495,184.663 187.877 C 183.428 185.928,178.340 181.670,175.556 180.255 C 174.810 179.876,173.660 179.245,173.000 178.853 C 169.706 176.894,163.654 175.342,157.200 174.802 C 152.286 174.391,120.259 174.275,119.867 174.667 M217.700 174.661 C 217.302 174.824,217.200 190.675,217.200 252.026 L 217.200 329.185 218.100 329.403 C 218.595 329.522,232.950 329.571,250.000 329.510 L 281.000 329.400 281.117 321.400 C 281.182 317.000,281.129 312.816,281.000 312.103 L 280.765 310.807 257.882 310.703 L 235.000 310.600 234.800 242.600 L 234.600 174.600 226.400 174.527 C 221.890 174.488,217.975 174.548,217.700 174.661 M161.272 193.112 C 161.541 193.381,162.085 193.600,162.483 193.600 C 162.881 193.600,164.136 194.095,165.273 194.700 C 179.180 202.103,180.014 226.729,166.616 234.390 C 162.196 236.917,161.699 236.991,149.000 236.996 L 137.400 237.000 137.296 215.200 C 137.239 203.210,137.286 193.154,137.402 192.852 C 137.688 192.104,160.513 192.353,161.272 193.112 M163.000 255.720 C 166.506 256.439,168.218 257.125,173.400 259.886 C 181.693 264.304,186.794 282.837,182.554 293.149 C 182.250 293.891,182.000 294.750,182.000 295.059 C 182.000 298.909,173.219 306.723,166.389 308.952 C 161.358 310.593,142.141 312.025,138.251 311.048 L 137.200 310.785 137.200 283.026 C 137.200 261.205,137.307 255.219,137.700 255.042 C 138.758 254.566,160.174 255.140,163.000 255.720 " stroke="none" fill="#0d2d55" fill-rule="evenodd"></path><path id="path1" d="M0.000 200.000 L 0.000 400.000 200.000 400.000 L 400.000 400.000 400.000 200.000 L 400.000 0.000 200.000 0.000 L 0.000 0.000 0.000 200.000 M229.358 73.409 C 229.869 73.744,231.455 75.413,232.882 77.117 C 235.187 79.871,235.901 80.430,239.300 82.139 C 243.626 84.315,247.501 87.753,250.193 91.803 C 255.914 100.410,261.127 107.047,266.757 112.890 C 270.081 116.339,272.800 119.245,272.800 119.348 C 272.800 122.404,269.472 120.599,259.797 112.295 C 254.254 107.538,251.563 104.740,245.800 97.747 C 241.806 92.900,236.040 87.947,231.486 85.450 C 228.833 83.995,228.678 84.055,227.193 87.100 C 222.426 96.877,214.161 105.175,204.000 110.386 C 202.570 111.120,201.130 111.866,200.800 112.045 C 200.470 112.224,199.120 112.844,197.800 113.422 C 196.323 114.070,194.452 115.383,192.935 116.837 C 191.579 118.137,190.314 119.200,190.124 119.200 C 189.934 119.200,189.063 119.949,188.189 120.864 C 184.268 124.970,183.216 125.934,181.988 126.546 C 181.267 126.906,180.507 127.200,180.299 127.200 C 180.091 127.200,179.354 127.450,178.660 127.756 C 176.777 128.587,170.942 129.699,170.012 129.404 C 168.740 129.000,169.093 127.924,170.998 126.400 C 175.189 123.047,175.872 114.322,171.800 116.154 C 169.035 117.398,167.235 117.953,164.400 118.434 C 160.728 119.057,157.892 120.544,153.945 123.915 C 150.127 127.176,150.295 127.054,149.169 127.402 C 148.636 127.568,147.545 128.033,146.743 128.437 C 145.942 128.841,143.784 129.561,141.948 130.037 C 139.117 130.771,137.856 131.411,133.643 134.251 C 128.665 137.607,127.243 138.270,127.959 136.900 C 128.160 136.515,128.926 134.957,129.662 133.438 C 130.955 130.768,131.760 129.819,143.568 117.051 C 151.898 108.044,156.446 105.200,162.520 105.200 C 167.279 105.200,172.455 102.996,176.987 99.038 C 178.314 97.879,179.940 96.591,180.600 96.175 C 181.260 95.759,181.890 95.324,182.000 95.209 C 184.220 92.886,189.735 92.522,195.509 94.317 C 197.830 95.038,198.980 94.707,201.233 92.673 C 201.765 92.193,202.920 91.268,203.800 90.617 C 204.680 89.967,206.592 88.437,208.050 87.217 C 209.507 85.998,212.091 83.920,213.793 82.600 C 215.494 81.280,217.092 80.014,217.343 79.788 C 218.208 79.007,222.603 75.728,224.745 74.265 C 227.103 72.655,227.963 72.495,229.358 73.409 M236.786 100.774 C 237.429 101.975,237.291 103.091,236.046 106.781 C 234.841 110.350,233.978 114.901,233.163 122.000 C 232.567 127.183,230.666 129.957,226.610 131.562 C 226.384 131.651,225.643 132.146,224.962 132.662 C 224.281 133.178,223.610 133.600,223.469 133.600 C 223.329 133.600,222.086 134.287,220.707 135.126 C 219.328 135.965,217.930 136.777,217.600 136.930 C 217.270 137.084,216.460 137.554,215.800 137.975 C 214.245 138.968,212.815 139.027,212.753 138.100 C 212.663 136.775,212.855 136.327,214.623 133.745 C 219.927 125.998,216.867 126.889,201.441 137.583 C 200.978 137.903,199.839 138.848,198.909 139.683 C 197.221 141.197,196.626 141.415,195.433 140.957 C 193.725 140.302,195.015 138.782,207.440 126.800 C 211.049 123.319,212.963 121.070,215.305 117.557 C 221.995 107.520,234.971 97.382,236.786 100.774 M157.200 174.802 C 163.654 175.342,169.706 176.894,173.000 178.853 C 173.660 179.245,174.810 179.876,175.556 180.255 C 178.340 181.670,183.428 185.928,184.663 187.877 C 185.055 188.495,186.017 189.900,186.801 191.000 C 187.586 192.100,188.564 193.810,188.976 194.800 C 189.388 195.790,190.147 197.534,190.662 198.675 C 191.178 199.817,191.600 201.197,191.600 201.743 C 191.600 202.289,191.857 203.785,192.171 205.068 C 194.017 212.601,193.122 223.682,190.192 229.598 C 189.239 231.522,188.362 232.880,185.297 237.177 C 184.914 237.715,183.565 239.361,182.300 240.836 C 179.538 244.057,179.468 244.661,181.701 246.079 C 184.944 248.140,192.475 256.180,194.926 260.200 C 200.684 269.645,202.192 279.841,200.013 294.600 C 198.909 302.085,193.450 312.407,187.744 317.800 C 185.516 319.906,181.673 322.903,180.518 323.436 C 179.903 323.720,178.410 324.429,177.200 325.012 C 174.101 326.505,171.353 327.337,166.000 328.403 C 160.862 329.427,122.498 330.227,120.233 329.357 C 119.572 329.104,119.208 175.325,119.867 174.667 C 120.259 174.275,152.286 174.391,157.200 174.802 M234.800 242.600 L 235.000 310.600 257.882 310.703 L 280.765 310.807 281.000 312.103 C 281.129 312.816,281.182 317.000,281.117 321.400 L 281.000 329.400 250.000 329.510 C 232.950 329.571,218.595 329.522,218.100 329.403 L 217.200 329.185 217.200 252.026 C 217.200 190.675,217.302 174.824,217.700 174.661 C 217.975 174.548,221.890 174.488,226.400 174.527 L 234.600 174.600 234.800 242.600 M137.402 192.852 C 137.286 193.154,137.239 203.210,137.296 215.200 L 137.400 237.000 149.000 236.996 C 161.699 236.991,162.196 236.917,166.616 234.390 C 180.014 226.729,179.180 202.103,165.273 194.700 C 164.136 194.095,162.881 193.600,162.483 193.600 C 162.085 193.600,161.541 193.381,161.272 193.112 C 160.513 192.353,137.688 192.104,137.402 192.852 M137.700 255.042 C 137.307 255.219,137.200 261.205,137.200 283.026 L 137.200 310.785 138.251 311.048 C 142.141 312.025,161.358 310.593,166.389 308.952 C 173.219 306.723,182.000 298.909,182.000 295.059 C 182.000 294.750,182.250 293.891,182.554 293.149 C 186.794 282.837,181.693 264.304,173.400 259.886 C 165.147 255.489,163.707 255.197,149.200 254.981 C 143.150 254.891,137.975 254.918,137.700 255.042 " stroke="none" fill="#fcfcfc" fill-rule="evenodd"></path></g></svg>