<svg id="svg" xmlns="http://www.w3.org/2000/svg" xmlns:xlink="http://www.w3.org/1999/xlink" width="400" height="400" viewBox="0, 0, 400,400"><g id="svgg"><path id="path0" d="M21.686 79.916 C 29.578 86.514,29.567 86.351,29.578 190.400 C 29.590 294.613,29.646 293.901,20.882 299.777 L 18.163 301.600 52.082 301.592 C 156.785 301.569,195.756 289.468,208.421 253.049 C 221.832 214.486,198.735 174.511,157.000 164.052 C 155.130 163.583,152.073 162.803,150.206 162.317 L 146.812 161.434 149.654 159.976 C 175.879 146.522,172.537 104.348,144.000 88.623 C 126.745 79.114,119.906 78.181,64.800 77.812 L 18.800 77.503 21.686 79.916 M229.704 79.964 C 237.525 86.411,237.551 86.776,237.551 190.000 C 237.551 294.125,237.564 293.956,228.882 299.777 L 226.163 301.600 304.282 301.600 L 382.400 301.600 382.400 286.834 L 382.400 272.069 378.790 275.928 C 372.903 282.221,363.410 286.493,348.000 289.781 C 340.336 291.416,266.546 293.013,261.156 291.660 C 256.149 290.404,256.400 295.767,256.400 190.000 C 256.400 81.085,255.982 88.187,262.819 81.051 L 266.126 77.600 246.481 77.600 L 226.835 77.600 229.704 79.964 M108.530 83.934 C 144.775 91.414,159.986 130.078,136.705 155.551 L 132.517 160.134 127.246 159.605 C 106.539 157.525,69.593 168.486,51.453 182.090 C 50.053 183.141,48.686 184.000,48.416 184.000 C 48.146 184.000,48.032 163.740,48.163 138.977 L 48.400 93.954 50.447 89.977 C 54.317 82.460,54.555 82.398,79.518 82.411 C 97.637 82.419,102.405 82.670,108.530 83.934 M135.158 167.249 C 190.213 176.181,210.922 243.927,167.469 272.947 C 146.931 286.663,121.018 292.400,79.600 292.400 C 45.166 292.400,48.470 297.449,48.166 244.369 L 47.933 203.466 51.638 198.965 C 69.877 176.810,107.060 162.690,135.158 167.249 M11.200 333.600 L 11.200 349.600 200.000 349.600 L 388.800 349.600 388.800 333.600 L 388.800 317.600 200.000 317.600 L 11.200 317.600 11.200 333.600 " stroke="none" fill="#000000" fill-rule="evenodd"></path></g></svg>